HIERARCHY
ROOT Hips
{
	OFFSET -0.001795 -0.223333 0.028219
	CHANNELS 6 Xposition Yposition Zposition Zrotation Yrotation Xrotation 
	JOINT LeftUpLeg
	{
		OFFSET 0.069520 -0.091406 -0.006815
		CHANNELS 3 Zrotation Yrotation Xrotation
		JOINT LeftLeg
		{
			OFFSET 0.034277 -0.375199 -0.004496
			CHANNELS 3 Zrotation Yrotation Xrotation
			JOINT LeftFoot
			{
				OFFSET -0.013596 -0.397961 -0.043693
				CHANNELS 3 Zrotation Yrotation Xrotation
				JOINT LeftToe
				{
					OFFSET 0.026358 -0.055791 0.119288
					CHANNELS 3 Zrotation Yrotation Xrotation
					End Site
					{
						OFFSET 0.000000 0.000000 0.000000
					}
				}
			}
		}
	}
	JOINT RightUpLeg
	{
		OFFSET -0.067670 -0.090522 -0.004320
		CHANNELS 3 Zrotation Yrotation Xrotation
		JOINT RightLeg
		{
			OFFSET -0.038290 -0.382569 -0.008850
			CHANNELS 3 Zrotation Yrotation Xrotation
			JOINT RightFoot
			{
				OFFSET 0.015774 -0.398415 -0.042312
				CHANNELS 3 Zrotation Yrotation Xrotation
				JOINT RightToe
				{
					OFFSET -0.025372 -0.048144 0.123348
					CHANNELS 3 Zrotation Yrotation Xrotation
					End Site
					{
						OFFSET 0.000000 0.000000 0.000000
					}
				}
			}
		}
	}
	JOINT Spine
	{
		OFFSET -0.002533 0.108963 -0.026696
		CHANNELS 3 Zrotation Yrotation Xrotation
		JOINT Spine1
		{
			OFFSET 0.005487 0.135180 0.001092
			CHANNELS 3 Zrotation Yrotation Xrotation
			JOINT Spine2
			{
				OFFSET 0.001457 0.052922 0.025425
				CHANNELS 3 Zrotation Yrotation Xrotation
				JOINT Neck
				{
					OFFSET -0.002778 0.213870 -0.042857
					CHANNELS 3 Zrotation Yrotation Xrotation
					JOINT Head
					{
						OFFSET 0.005152 0.064970 0.051349
						CHANNELS 3 Zrotation Yrotation Xrotation
						End Site
						{
							OFFSET 0.000000 0.000000 0.000000
						}
					}
				}
				JOINT LeftShoulder
				{
					OFFSET 0.078845 0.121749 -0.034090
					CHANNELS 3 Zrotation Yrotation Xrotation
					JOINT LeftArm
					{
						OFFSET 0.090977 0.030469 -0.008868
						CHANNELS 3 Zrotation Yrotation Xrotation
						JOINT LeftForeArm
						{
							OFFSET 0.259612 -0.012772 -0.027456
							CHANNELS 3 Zrotation Yrotation Xrotation
							JOINT LeftHand
							{
								OFFSET 0.249234 0.008986 -0.001171
								CHANNELS 3 Zrotation Yrotation Xrotation
								End Site
								{
									OFFSET 0.000000 0.000000 0.000000
								}
							}
						}
					}
				}
				JOINT RightShoulder
				{
					OFFSET -0.081759 0.118833 -0.038615
					CHANNELS 3 Zrotation Yrotation Xrotation
					JOINT RightArm
					{
						OFFSET -0.096012 0.032551 -0.009143
						CHANNELS 3 Zrotation Yrotation Xrotation
						JOINT RightForeArm
						{
							OFFSET -0.253742 -0.013329 -0.021401
							CHANNELS 3 Zrotation Yrotation Xrotation
							JOINT RightHand
							{
								OFFSET -0.255298 0.007772 -0.005559
								CHANNELS 3 Zrotation Yrotation Xrotation
								End Site
								{
									OFFSET 0.000000 0.000000 0.000000
								}
							}
						}
					}
				}
			}
		}
	}
}
MOTION
Frames: 17
Frame Time: 0.050000
0.000000 0.937285 0.000000 6.378744 2.768377 31.534470 0.733851 -1.918757 -21.042945 1.130386 0.090840 -4.342743 -0.581663 5.665458 16.531896 0.000000 0.000000 0.000000 -8.093916 1.167637 -41.584686 2.558118 -0.158502 9.694821 19.617426 28.831962 19.417153 0.000000 0.000000 0.000000 9.554663 -4.638182 24.526948 5.232072 -2.600725 3.955567 -2.098684 0.356626 8.812852 10.841334 -4.442357 -19.255837 0.000000 0.000000 0.000000 -24.482985 -26.229770 14.851651 -34.247172 -20.211067 0.690195 19.156034 -52.788292 -6.670184 0.000000 0.000000 0.000000 15.259739 23.747646 12.461045 25.422869 28.954643 1.744106 -46.124453 45.621373 -16.120752 0.000000 0.000000 0.000000 
0.000762 0.938542 -0.000109 6.652196 2.073807 30.992562 1.425761 -1.788046 -20.397417 0.000474 0.178455 -5.219065 -2.004202 4.231520 19.167479 0.000000 0.000000 0.000000 -7.590296 1.397928 -41.424637 1.003739 0.158391 10.319533 20.027187 29.537865 19.419184 0.000000 0.000000 0.000000 8.593933 -4.366151 25.689206 5.552223 -2.865681 5.063515 -1.704290 -0.972247 7.622696 9.627421 -3.971469 -18.941206 0.000000 0.000000 0.000000 -24.665812 -20.522266 11.531706 -36.729933 -17.107385 0.024095 13.528665 -55.812974 -3.999194 0.000000 0.000000 0.000000 15.609444 24.657808 12.543003 23.349363 29.067366 1.493851 -47.193186 44.291683 -16.229585 0.000000 0.000000 0.000000 
0.001454 0.937566 -0.000799 7.549130 3.493817 30.957086 0.819223 -1.910217 -20.680505 0.123298 0.173928 -5.316869 -3.088947 3.193745 19.873768 0.000000 0.000000 0.000000 -8.417963 0.878894 -41.409267 1.088481 0.125629 11.015130 18.958240 28.937096 17.940686 0.000000 0.000000 0.000000 9.018046 -4.666448 25.924079 4.766845 -2.574632 5.441520 -0.933863 -1.051604 6.272276 9.100395 -3.750568 -17.897081 0.000000 0.000000 0.000000 -26.243721 -18.332546 9.995259 -37.238275 -16.046523 -0.078605 4.006289 -56.218792 0.945412 0.000000 0.000000 0.000000 18.103179 24.543214 13.106173 18.964503 29.475801 0.732011 -39.919618 39.997857 -11.597129 0.000000 0.000000 0.000000 
0.001719 0.939535 -0.001180 8.278494 3.901230 31.274458 0.231619 -1.988448 -20.778101 1.012563 0.137930 -5.328761 -5.469505 -0.212822 19.862089 0.000000 0.000000 0.000000 -9.461967 0.431485 -42.124651 1.615416 0.013370 11.960782 18.832557 28.269462 18.397031 0.000000 0.000000 0.000000 9.208004 -4.883773 26.602686 4.838676 -2.620469 5.312257 -1.273721 -0.596863 6.339088 9.022386 -3.413654 -19.278484 0.000000 0.000000 0.000000 -27.292291 -17.461591 9.149403 -37.256075 -13.179488 -0.742547 0.811229 -54.113548 2.329905 0.000000 0.000000 0.000000 16.300622 26.246906 14.088994 17.528000 30.341527 0.482779 -39.964725 36.309206 -10.245415 0.000000 0.000000 0.000000 
0.001880 0.939378 -0.001530 9.339758 5.795994 31.211270 -0.852143 -2.085744 -20.350970 1.436055 0.136098 -5.684980 -6.163747 -1.202476 19.053508 0.000000 0.000000 0.000000 -9.730419 -0.010656 -41.378261 0.640313 0.178698 11.865547 17.604111 27.556832 16.613362 0.000000 0.000000 0.000000 9.685261 -5.272278 26.896438 4.457850 -2.383860 4.187135 -1.147596 -0.744079 6.744820 8.682131 -3.289034 -18.509662 0.000000 0.000000 0.000000 -28.731256 -16.871826 8.528173 -36.806477 -10.792573 -1.285446 -3.998807 -54.260209 4.636765 0.000000 0.000000 0.000000 17.314938 27.974052 15.644460 13.014643 30.911234 -0.406121 -34.402520 30.348647 -6.874696 0.000000 0.000000 0.000000 
0.001724 0.939622 -0.001732 10.111229 7.211942 31.265423 -1.357862 -2.115759 -19.968447 1.327400 0.143418 -5.790044 -6.595609 -2.209996 17.782880 0.000000 0.000000 0.000000 -10.317327 -0.498106 -41.542891 0.707997 0.139997 12.936269 16.832896 26.765628 15.821192 0.000000 0.000000 0.000000 9.661496 -5.324357 26.584013 4.142875 -2.234812 3.802409 -0.813388 0.849710 7.150480 9.082432 -3.078525 -19.819348 0.000000 0.000000 0.000000 -28.652897 -17.162827 7.618666 -38.127379 -8.085263 -1.753696 -10.498826 -53.384005 7.414300 0.000000 0.000000 0.000000 14.699691 27.964077 15.649882 13.214249 31.623206 -0.332806 -33.036062 25.227202 -5.143677 0.000000 0.000000 0.000000 
0.001573 0.939895 -0.001999 10.870896 9.185105 31.058307 -1.667110 -2.151386 -19.702190 1.195292 0.139693 -5.646141 -6.564919 -2.729463 16.035913 0.000000 0.000000 0.000000 -11.005395 -1.082111 -40.937943 1.173127 -0.021664 13.460173 15.831642 25.636760 14.844083 0.000000 0.000000 0.000000 9.735831 -5.441573 26.255748 4.194758 -2.233555 3.104550 -0.775323 1.294693 7.263844 9.197148 -3.109770 -19.203851 0.000000 0.000000 0.000000 -29.400622 -16.239508 6.246826 -38.989363 -4.859686 -2.464511 -15.814371 -52.493624 9.615237 0.000000 0.000000 0.000000 15.933028 28.039554 16.428058 11.498475 30.709109 -0.715556 -31.502289 22.881451 -4.304920 0.000000 0.000000 0.000000 
0.001321 0.940375 -0.002444 11.331860 11.117765 30.587723 -1.834250 -2.145135 -19.318631 0.816814 0.135759 -5.307483 -5.336543 -1.923193 13.312050 0.000000 0.000000 0.000000 -11.266572 -1.453918 -40.149915 1.424354 -0.142943 14.031969 14.936871 24.566121 14.019227 0.000000 0.000000 0.000000 9.581773 -5.349570 25.417740 4.403467 -2.429492 3.564892 -0.742926 2.321412 6.896604 9.049847 -2.784888 -19.458798 0.000000 0.000000 0.000000 -29.855949 -16.312767 5.273739 -39.581759 -2.517042 -2.851301 -19.383412 -51.902711 10.875920 0.000000 0.000000 0.000000 16.660389 27.395619 16.783885 11.107279 30.298439 -0.796531 -30.304632 21.298781 -3.728777 0.000000 0.000000 0.000000 
0.001168 0.940619 -0.003030 11.473418 13.129019 29.890667 -1.474923 -2.183330 -19.463892 0.274004 0.117146 -4.261508 -4.749764 -1.793868 11.388704 0.000000 0.000000 0.000000 -11.113350 -1.694011 -39.384432 1.553418 -0.254090 14.938253 14.106285 23.531130 13.233928 0.000000 0.000000 0.000000 9.624667 -5.362586 24.860650 3.915249 -2.234002 3.479592 -0.366152 2.531988 6.523889 8.594275 -2.424151 -19.461530 0.000000 0.000000 0.000000 -29.830272 -14.785662 3.584424 -40.073599 -0.716810 -3.243951 -22.353174 -51.376839 11.955841 0.000000 0.000000 0.000000 17.355312 26.562874 16.743527 12.289901 30.135498 -0.591073 -29.767230 20.495843 -3.447466 0.000000 0.000000 0.000000 
0.001219 0.940861 -0.003457 11.730198 15.394306 28.695376 -1.288903 -2.071864 -18.519557 -0.674405 0.133710 -4.111252 -5.224385 -2.776199 10.760034 0.000000 0.000000 0.000000 -11.150330 -1.953937 -38.002862 1.853179 -0.445781 15.941903 13.168689 22.380116 12.263146 0.000000 0.000000 0.000000 9.258266 -5.242562 24.495257 4.110430 -2.276042 2.679019 -0.312941 3.087238 7.235037 8.172488 -1.899828 -20.241998 0.000000 0.000000 0.000000 -29.224157 -14.300739 2.410465 -41.165443 0.492681 -3.559873 -23.362696 -51.259074 12.028370 0.000000 0.000000 0.000000 18.426057 25.283936 16.760640 13.662225 29.917759 -0.442836 -30.098234 20.240332 -3.397352 0.000000 0.000000 0.000000 
0.001499 0.940536 -0.003986 11.823132 18.044864 27.672460 -1.038437 -2.002933 -17.909425 -0.891282 0.126060 -4.080233 -7.322335 -5.557652 11.729984 0.000000 0.000000 0.000000 -11.169446 -2.163993 -36.156168 2.442437 -0.713885 15.899369 11.970581 20.903298 11.042165 0.000000 0.000000 0.000000 9.414574 -5.286306 23.887216 3.575251 -2.106445 2.930611 0.029466 3.146752 6.646470 7.780671 -1.555341 -20.219571 0.000000 0.000000 0.000000 -29.124489 -13.481234 1.217115 -41.617249 0.792115 -3.516208 -24.167666 -51.144995 12.114039 0.000000 0.000000 0.000000 17.667061 24.331687 16.202449 16.736701 30.231592 0.144595 -29.725498 19.916206 -3.194270 0.000000 0.000000 0.000000 
0.001897 0.940614 -0.004621 11.836682 20.812278 25.988758 -0.616942 -1.783213 -16.437254 -1.625288 0.122695 -4.556883 -9.637206 -7.608813 13.958594 0.000000 0.000000 0.000000 -11.008774 -2.194638 -33.752037 2.823716 -0.956772 16.105275 10.778571 19.354651 9.839611 0.000000 0.000000 0.000000 9.384325 -5.203241 23.152696 3.458531 -2.199814 3.613333 0.085642 3.867758 6.652683 7.156953 -0.894238 -20.915759 0.000000 0.000000 0.000000 -28.647351 -14.036332 0.689360 -42.392740 1.238522 -3.527031 -24.209441 -52.284115 11.984149 0.000000 0.000000 0.000000 17.578245 23.222202 15.952373 18.880472 30.144066 0.494349 -30.269980 19.580444 -3.116909 0.000000 0.000000 0.000000 
0.002161 0.940947 -0.005661 11.895737 24.019200 24.906379 -0.065842 -1.714033 -15.940009 -2.121444 0.099141 -4.171208 -11.793199 -9.274268 16.000107 0.000000 0.000000 0.000000 -10.969847 -2.354346 -31.788514 3.480988 -1.304717 16.109361 9.485257 17.367920 8.967895 0.000000 0.000000 0.000000 9.612910 -5.219943 22.350313 2.750905 -1.926964 3.654063 0.546367 4.040989 6.091848 6.876118 -0.725769 -19.934329 0.000000 0.000000 0.000000 -29.109819 -13.622184 -0.414783 -42.129745 2.021028 -3.499123 -25.466307 -52.820438 12.451446 0.000000 0.000000 0.000000 18.640720 21.815132 15.831801 19.741437 29.837223 0.526456 -28.667870 19.859609 -2.945800 0.000000 0.000000 0.000000 
0.002229 0.941623 -0.006851 11.463807 27.112497 23.328709 0.807330 -1.575032 -15.052158 -2.648533 0.069834 -4.074757 -12.315363 -8.925407 16.934877 0.000000 0.000000 0.000000 -10.440336 -2.215162 -29.420234 4.037976 -1.597830 15.743082 8.277814 15.378349 8.384016 0.000000 0.000000 0.000000 9.571823 -4.981594 21.090158 2.404206 -1.865324 3.957079 0.929010 4.852498 6.347313 6.088153 0.072998 -20.714572 0.000000 0.000000 0.000000 -28.886118 -13.951041 -1.233680 -42.321838 2.125756 -3.311268 -26.200138 -53.845352 12.596212 0.000000 0.000000 0.000000 19.686373 20.397816 15.879991 20.424149 29.778705 0.513608 -28.235472 19.332623 -2.751482 0.000000 0.000000 0.000000 
0.002181 0.942217 -0.007942 11.029213 30.325783 22.138641 1.535662 -1.554243 -14.875802 -2.763257 0.043999 -3.337308 -12.863027 -9.030524 17.343355 0.000000 0.000000 0.000000 -9.983990 -2.145488 -27.422828 4.785751 -1.950638 15.234226 7.052045 13.243715 8.036255 0.000000 0.000000 0.000000 9.667072 -4.867276 20.138772 1.859190 -1.703024 4.174409 1.181582 5.749632 5.808938 6.203832 0.068634 -19.477015 0.000000 0.000000 0.000000 -29.794673 -14.178998 -2.431760 -41.308779 3.081248 -3.070207 -28.423312 -53.881119 13.333746 0.000000 0.000000 0.000000 19.903552 18.654482 15.490818 22.281351 29.245036 0.651809 -27.190104 20.473102 -2.766244 0.000000 0.000000 0.000000 
0.002495 0.943235 -0.008368 10.367900 33.574574 20.571425 2.004204 -1.433490 -13.960052 -2.763950 0.009284 -3.274417 -12.539494 -7.887745 17.374950 0.000000 0.000000 0.000000 -9.231041 -1.869248 -24.855758 5.355679 -2.183768 14.159197 5.765626 10.975006 7.811744 0.000000 0.000000 0.000000 9.709894 -4.607099 18.839705 1.215840 -1.513902 4.468302 1.365688 6.482463 5.572841 5.745253 0.508858 -19.185506 0.000000 0.000000 0.000000 -29.939305 -14.111803 -3.595317 -40.895220 3.216961 -2.762518 -29.939633 -53.589750 13.594614 0.000000 0.000000 0.000000 21.128046 16.689776 15.295149 23.741350 28.698492 0.601511 -27.506757 22.282304 -3.057678 0.000000 0.000000 0.000000 
0.003572 0.943955 -0.008184 9.646889 37.035721 19.410566 2.681748 -1.420098 -13.734210 -2.949635 -0.026986 -2.689454 -12.175171 -7.149589 16.880603 0.000000 0.000000 0.000000 -8.504353 -1.706166 -22.914465 6.088114 -2.514756 13.364882 4.446694 8.592337 7.802259 0.000000 0.000000 0.000000 9.701502 -4.162048 16.899041 0.774759 -1.385896 4.412070 1.573705 6.511177 5.582995 5.403612 0.583783 -17.456474 0.000000 0.000000 0.000000 -30.808219 -14.237455 -4.574609 -39.565909 3.799861 -2.516041 -32.774034 -52.517872 14.559015 0.000000 0.000000 0.000000 22.531062 14.834056 15.121940 25.663931 27.462810 0.422685 -27.155104 25.808544 -3.557464 0.000000 0.000000 0.000000 
